<?xml version="1.0" encoding="utf-8"?>
<!-- Generator: Adobe Illustrator 16.0.0, SVG Export Plug-In . SVG Version: 6.00 Build 0)  -->
<!DOCTYPE svg PUBLIC "-//W3C//DTD SVG 1.1//EN" "http://www.w3.org/Graphics/SVG/1.1/DTD/svg11.dtd">
<svg version="1.1" id="Layer_1" xmlns="http://www.w3.org/2000/svg" xmlns:xlink="http://www.w3.org/1999/xlink" x="0px" y="0px"
	 width="512px" height="335.449px" viewBox="0 88.275 512 335.449" enable-background="new 0 88.275 512 335.449"
	 xml:space="preserve">
<path fill="#41479B" d="M473.655,88.276H38.345C17.167,88.276,0,105.443,0,126.621V385.38c0,21.177,17.167,38.345,38.345,38.345
	h435.31c21.177,0,38.345-17.167,38.345-38.345V126.621C512,105.443,494.833,88.276,473.655,88.276z"/>
<path fill="#F5F5F5" d="M511.469,120.282c-3.021-18.159-18.797-32.007-37.813-32.007h-9.978L300.139,195.422V88.276h-88.277v107.147
	L48.322,88.276h-9.977c-19.017,0-34.792,13.847-37.814,32.007l139.778,91.58H0v88.276h140.309L0.531,391.717
	c3.022,18.159,18.797,32.007,37.814,32.007h9.977l163.54-107.146v107.146h88.277V316.577l163.539,107.146h9.978
	c19.017,0,34.792-13.847,37.813-32.007l-139.777-91.58H512v-88.276H371.691L511.469,120.282z"/>
<polygon fill="#FF4B55" points="282.482,88.276 229.517,88.276 229.517,229.517 0,229.517 0,282.482 229.517,282.482 
	229.517,423.724 282.482,423.724 282.482,282.482 512,282.482 512,229.517 282.482,229.517 "/>
<path fill="#FF4B55" d="M24.793,421.252l186.583-121.113h-32.428L9.224,410.31C13.377,415.157,18.714,418.955,24.793,421.252z"/>
<path fill="#FF4B55" d="M346.388,300.139H313.96l180.716,117.305c5.058-3.321,9.277-7.808,12.287-13.075L346.388,300.139z"/>
<path fill="#FF4B55" d="M4.049,109.475l157.73,102.387h32.428L15.475,95.842C10.676,99.414,6.749,104.084,4.049,109.475z"/>
<path fill="#FF4B55" d="M332.566,211.862l170.034-110.375c-4.198-4.831-9.577-8.607-15.698-10.86L300.139,211.862H332.566z"/>
</svg>
