<?xml version="1.0" encoding="utf-8"?>
<!-- Generator: Adobe Illustrator 16.0.0, SVG Export Plug-In . SVG Version: 6.00 Build 0)  -->
<!DOCTYPE svg PUBLIC "-//W3C//DTD SVG 1.1//EN" "http://www.w3.org/Graphics/SVG/1.1/DTD/svg11.dtd">
<svg version="1.1" id="Layer_1" xmlns="http://www.w3.org/2000/svg" xmlns:xlink="http://www.w3.org/1999/xlink" x="0px" y="0px"
	 width="512px" height="335.449px" viewBox="0 88.275 512 335.449" enable-background="new 0 88.275 512 335.449"
	 xml:space="preserve">
<path fill="#FF4B55" d="M473.655,88.276H38.345C17.167,88.276,0,105.443,0,126.621V385.38c0,21.177,17.167,38.345,38.345,38.345
	h435.31c21.177,0,38.345-17.167,38.345-38.345V126.621C512,105.443,494.833,88.276,473.655,88.276z"/>
<g>
	<path fill="#FFE15A" d="M219.121,231.838c1.886-2.873,4.121-5.469,6.607-7.822c-0.006,0.004-0.011,0.009-0.017,0.013L97.103,88.276
		H38.345c-9.386,0-17.98,3.378-24.644,8.977L219.121,231.838z"/>
	<path fill="#FFE15A" d="M212.318,260.521c-0.156-1.508-0.456-2.973-0.456-4.521s0.3-3.014,0.456-4.522v0.002L0,229.517v52.965
		l212.318-21.963V260.521z"/>
	<polygon fill="#FFE15A" points="249.14,212.553 249.14,212.553 249.139,212.553 	"/>
	<path fill="#FFE15A" d="M256,211.862c2.35,0,4.609,0.338,6.859,0.691l19.623-124.277h-52.965l19.623,124.277
		C251.39,212.2,253.65,211.862,256,211.862z"/>
	<polygon fill="#FFE15A" points="262.861,212.553 262.859,212.553 262.859,212.553 	"/>
	<path fill="#FFE15A" d="M286.271,224.015c2.486,2.354,4.723,4.949,6.607,7.822L498.3,97.252
		c-6.665-5.599-15.258-8.977-24.644-8.977h-58.76L286.289,224.029C286.283,224.024,286.275,224.021,286.271,224.015z"/>
	<path fill="#FFE15A" d="M292.879,280.162c-1.886,2.873-4.121,5.469-6.607,7.822c0.006-0.004,0.012-0.01,0.018-0.014
		l128.608,135.753h58.759c9.386,0,17.979-3.378,24.644-8.977L292.879,280.162z"/>
	<path fill="#FFE15A" d="M299.682,251.478c0.156,1.507,0.457,2.973,0.457,4.522s-0.301,3.014-0.457,4.521v-0.002L512,282.482
		v-52.965l-212.318,21.964V251.478z"/>
	<path fill="#FFE15A" d="M256,300.139c-2.35,0-4.61-0.339-6.86-0.691l-19.623,124.276h52.965l-19.623-124.276
		C260.609,299.8,258.35,300.139,256,300.139z"/>
	<polygon fill="#FFE15A" points="262.859,299.447 262.859,299.447 262.861,299.447 	"/>
	<polygon fill="#FFE15A" points="249.139,299.447 249.14,299.447 249.14,299.447 	"/>
	<path fill="#FFE15A" d="M225.728,287.984c-2.486-2.354-4.722-4.948-6.607-7.821L13.7,414.748
		c6.665,5.599,15.258,8.977,24.644,8.977h58.759l128.608-135.752C225.717,287.977,225.724,287.979,225.728,287.984z"/>
	<circle fill="#FFE15A" cx="256" cy="256" r="35.31"/>
</g>
</svg>
